#N canvas 262 25 1002 680 10;
#X obj 352 257 unpack f f f f f f f f f f f f f f f f f f f f f f f f f f;
#X obj 44 352 change;
#X obj 44 390 route 1 0;
#X obj 358 337 change;
#X obj 358 372 route 1 0;
#X obj 35 48 loadbang;
#X obj 352 181 r bela_trill;
#X obj 35 167 s bela_setTrill;
#X obj 352 218 route mycraft;
#X obj 99 66 r bela_trillCreated;
#X obj 95 89 print bela_trillCreated;
#X obj -42 874 osc~;
#X floatatom 31 787 5 0 0 0 - - - 0;
#X obj -1 826 tgl 19 0 empty empty empty 0 -10 0 12 #fcfcfc #000000 #000000 0 1;
#X obj 83 466 tgl 16 0 empty empty empty 0 -8 0 10 #fcfcfc #000000 #000000 0 1;
#X obj 144 856 osc~;
#X floatatom 143 799 5 0 0 0 - - - 0;
#X obj 146 882 *~ 0.1;
#X obj 115 827 tgl 19 0 empty empty empty 0 -10 0 12 #fcfcfc #000000 #000000 0 1;
#X obj 143 826 + 58;
#X obj 30 817 + 233;
#X obj -50 900 *~ 0.1;
#X obj 29 726 metro 1 75 permin;
#X obj -27 440 bng 19 250 50 0 empty empty empty 0 -10 0 12 #fcfcfc #000000 #000000;
#X obj 30 757 random 233;
#X obj 142 769 random 58;
#X text 444 359 Sensor 2: This sensor will play three random notes wtihin the octave of Bflat4 with a delay between them, f 22;
#X text 101 430 Sensor 1 - Low and Mid Range This section will randomly generate a number between 233 and 466 (range of Bflat3 and Bflat4) and between 58 and 116 (range of Bflat1 and Bflat2) to play in the oscilator continuously. To be used for the first sensor. This speeds up over time, f 29;
#X msg 35 128 new mycraft 1 CRAFT \, prescaler mycraft 2 \, threshold mycraft 0.01;
#X obj 315 950 dac~ 1 2;
#X obj 332 769 osc~;
#X obj 324 839 *~ 0.1;
#X obj 580 496 tgl 19 0 empty empty empty 0 -10 0 12 #fcfcfc #000000 #000000 0 1;
#X obj 432 768 osc~;
#X obj 574 772 osc~;
#X obj 375 503 bng 19 250 50 0 empty empty empty 0 -10 0 12 #fcfcfc #000000 #000000;
#X floatatom 307 684 5 0 0 0 - - - 0;
#X floatatom 559 688 5 0 0 0 - - - 0;
#X obj 280 629 random 466;
#X obj 412 637 random 466;
#X obj 539 616 random 466;
#X obj 556 731 + 466;
#X obj 302 721 + 466;
#X obj 425 723 + 466;
#X text 557 463 Off Switch;
#X text 391 457 On Switch;
#X obj 445 877 *~ 1;
#X obj 438 923 dac~ 1 2;
#X obj 604 873 *~ 1;
#X obj 597 919 dac~ 1 2;
#X obj 462 793 *~ 0.1;
#X obj 610 787 *~ 0.1;
#X obj 572 814 delwrite~ audio-buffer2 9000;
#X floatatom 430 678 5 0 0 0 - - - 0;
#X obj 388 846 delread~ audio-buffer1 1000;
#X obj 377 824 delwrite~ audio-buffer1 5000;
#X obj 565 842 delread~ audio-buffer2 2000;
#X obj 141 738 metro 1 75 permin;
#X obj 182 611 line;
#X floatatom 184 655 5 0 0 0 - - - 0;
#X msg 127 553 75;
#X msg 156 695 tempo \$1 permin;
#X obj 217 592 tgl 16 0 empty empty empty 0 -8 0 10 #fcfcfc #000000 #000000 0 1;
#X obj 480 538 delay 3000;
#X obj 821 318 change;
#X obj 821 356 route 1 0;
#X obj 818 296 > 0.5;
#X obj 809 810 osc~;
#X floatatom 808 753 5 0 0 0 - - - 0;
#X obj 776 792 tgl 19 0 empty empty empty 0 -10 0 12 #fcfcfc #000000 #000000 0 1;
#X obj 860 432 tgl 16 0 empty empty empty 0 -8 0 10 #fcfcfc #000000 #000000 0 1;
#X obj 921 822 osc~;
#X floatatom 920 765 5 0 0 0 - - - 0;
#X obj 966 851 *~ 0.1;
#X obj 892 793 tgl 19 0 empty empty empty 0 -10 0 12 #fcfcfc #000000 #000000 0 1;
#X obj 920 792 + 58;
#X obj 808 780 + 233;
#X obj 771 837 *~ 0.1;
#X obj 806 692 metro 1 75 permin;
#X obj 750 406 bng 19 250 50 0 empty empty empty 0 -10 0 12 #fcfcfc #000000 #000000;
#X obj 807 723 random 233;
#X obj 919 735 random 58;
#X text 878 396 Sensor 1 - Low and Mid Range This section will randomly generate a number between 233 and 466 (range of Bflat3 and Bflat4) and between 58 and 116 (range of Bflat1 and Bflat2) to play in the oscilator continuously. To be used for the first sensor. This speeds up over time, f 29;
#X obj 918 704 metro 1 75 permin;
#X obj 959 577 line;
#X floatatom 961 621 5 0 0 0 - - - 0;
#X msg 933 661 tempo \$1 permin;
#X obj 994 558 tgl 16 0 empty empty empty 0 -8 0 10 #fcfcfc #000000 #000000 0 1;
#X msg 971 520 75 1.2e+06;
#X msg 904 519 180;
#X msg 194 554 180 1.8e+06;
#X obj 44 989 dac~ 1 2;
#X floatatom 74 943 5 0 0 0 - - - 0;
#X obj 9 874 random 50;
#X obj -51 955 *~ 2;
#X obj -49 930 rev1~;
#X obj 145 940 *~ 2;
#X obj 147 915 rev1~;
#X obj 851 970 dac~ 1 2;
#X obj 765 914 *~ 2;
#X obj 767 889 rev1~;
#X obj 961 929 *~ 2;
#X obj 963 904 rev1~;
#X obj 44 327 > 0.3;
#X obj 358 312 > 0.3;
#X obj 88 859 * 10;
#X obj 88 889 + 20;
#X obj 44 916 +;
#X floatatom 883 929 5 0 0 0 - - - 0;
#X obj 818 860 random 50;
#X obj 897 845 * 10;
#X obj 897 875 + 20;
#X obj 853 902 +;
#X text 442 146 Sensor 1 sets the drone to go faster. Sensor 3 will set the oscillator to go slower.;
#X connect 0 9 104 0;
#X connect 0 14 103 0;
#X connect 0 16 66 0;
#X connect 1 0 2 0;
#X connect 1 0 105 0;
#X connect 2 0 23 0;
#X connect 2 1 23 0;
#X connect 3 0 4 0;
#X connect 4 0 35 0;
#X connect 4 1 35 0;
#X connect 5 0 28 0;
#X connect 6 0 8 0;
#X connect 8 0 0 0;
#X connect 9 0 10 0;
#X connect 11 0 21 0;
#X connect 12 0 20 0;
#X connect 13 0 11 0;
#X connect 14 0 22 0;
#X connect 14 0 57 0;
#X connect 14 0 60 0;
#X connect 15 0 17 0;
#X connect 16 0 19 0;
#X connect 17 0 97 0;
#X connect 18 0 15 0;
#X connect 19 0 15 0;
#X connect 20 0 11 0;
#X connect 21 0 95 0;
#X connect 22 0 24 0;
#X connect 22 0 93 0;
#X connect 23 0 13 0;
#X connect 23 0 18 0;
#X connect 23 0 14 0;
#X connect 24 0 12 0;
#X connect 25 0 16 0;
#X connect 28 0 7 0;
#X connect 30 0 31 0;
#X connect 31 0 29 0;
#X connect 31 0 29 1;
#X connect 32 0 33 0;
#X connect 32 0 34 0;
#X connect 32 0 30 0;
#X connect 33 0 50 0;
#X connect 34 0 51 0;
#X connect 35 0 32 0;
#X connect 35 0 40 0;
#X connect 35 0 39 0;
#X connect 35 0 38 0;
#X connect 35 0 63 0;
#X connect 36 0 42 0;
#X connect 37 0 41 0;
#X connect 38 0 36 0;
#X connect 39 0 53 0;
#X connect 40 0 37 0;
#X connect 41 0 34 0;
#X connect 42 0 30 0;
#X connect 43 0 33 0;
#X connect 46 0 47 0;
#X connect 46 0 47 1;
#X connect 48 0 49 0;
#X connect 48 0 49 1;
#X connect 50 0 55 0;
#X connect 51 0 52 0;
#X connect 53 0 43 0;
#X connect 54 0 46 0;
#X connect 56 0 48 0;
#X connect 57 0 25 0;
#X connect 58 0 59 0;
#X connect 59 0 61 0;
#X connect 60 0 58 0;
#X connect 60 0 62 0;
#X connect 61 0 57 0;
#X connect 61 0 22 0;
#X connect 62 0 90 0;
#X connect 63 0 32 0;
#X connect 64 0 65 0;
#X connect 64 0 110 0;
#X connect 65 0 79 0;
#X connect 65 1 79 0;
#X connect 66 0 64 0;
#X connect 67 0 77 0;
#X connect 68 0 76 0;
#X connect 69 0 67 0;
#X connect 70 0 78 0;
#X connect 70 0 83 0;
#X connect 70 0 89 0;
#X connect 71 0 73 0;
#X connect 72 0 75 0;
#X connect 73 0 102 0;
#X connect 74 0 71 0;
#X connect 75 0 71 0;
#X connect 76 0 67 0;
#X connect 77 0 100 0;
#X connect 78 0 80 0;
#X connect 78 0 109 0;
#X connect 79 0 69 0;
#X connect 79 0 74 0;
#X connect 79 0 70 0;
#X connect 80 0 68 0;
#X connect 81 0 72 0;
#X connect 83 0 81 0;
#X connect 84 0 85 0;
#X connect 85 0 86 0;
#X connect 86 0 83 0;
#X connect 86 0 78 0;
#X connect 87 0 88 0;
#X connect 88 0 84 0;
#X connect 89 0 84 0;
#X connect 89 0 87 0;
#X connect 90 0 58 0;
#X connect 92 0 95 1;
#X connect 92 0 97 1;
#X connect 93 0 107 0;
#X connect 94 0 91 0;
#X connect 94 0 91 1;
#X connect 95 0 94 0;
#X connect 96 0 91 0;
#X connect 96 0 91 1;
#X connect 97 0 96 0;
#X connect 99 0 98 0;
#X connect 99 0 98 1;
#X connect 100 0 99 0;
#X connect 101 0 98 0;
#X connect 101 0 98 1;
#X connect 102 0 101 0;
#X connect 103 0 1 0;
#X connect 104 0 3 0;
#X connect 105 0 106 0;
#X connect 106 0 107 1;
#X connect 107 0 92 0;
#X connect 108 0 100 1;
#X connect 108 0 102 1;
#X connect 109 0 112 0;
#X connect 110 0 111 0;
#X connect 111 0 112 1;
#X connect 112 0 108 0;
